<svg width="300" height="300" viewBox="0 0 300 300" xmlns="http://www.w3.org/2000/svg">
  <defs>
    <linearGradient id="skyGradient" x1="0%" y1="0%" x2="0%" y2="100%">
      <stop offset="0%" style="stop-color:#87CEEB;stop-opacity:1" />
      <stop offset="100%" style="stop-color:#98D8E8;stop-opacity:1" />
    </linearGradient>
    <linearGradient id="mountainGradient" x1="0%" y1="0%" x2="0%" y2="100%">
      <stop offset="0%" style="stop-color:#8FBC8F;stop-opacity:1" />
      <stop offset="100%" style="stop-color:#556B2F;stop-opacity:1" />
    </linearGradient>
    <linearGradient id="grassGradient" x1="0%" y1="0%" x2="0%" y2="100%">
      <stop offset="0%" style="stop-color:#9ACD32;stop-opacity:1" />
      <stop offset="100%" style="stop-color:#228B22;stop-opacity:1" />
    </linearGradient>
    <radialGradient id="sunGradient" cx="50%" cy="50%" r="50%">
      <stop offset="0%" style="stop-color:#FFD700;stop-opacity:1" />
      <stop offset="100%" style="stop-color:#FFA500;stop-opacity:1" />
    </radialGradient>
  </defs>
  
  <!-- Sky background -->
  <rect width="300" height="300" fill="url(#skyGradient)"/>
  
  <!-- Sun -->
  <circle cx="250" cy="60" r="25" fill="url(#sunGradient)"/>
  
  <!-- Mountains -->
  <polygon points="0,150 80,80 160,120 240,70 300,110 300,300 0,300" fill="url(#mountainGradient)"/>
  
  <!-- Hills -->
  <ellipse cx="50" cy="200" rx="60" ry="30" fill="#90EE90"/>
  <ellipse cx="200" cy="210" rx="80" ry="35" fill="#90EE90"/>
  <ellipse cx="270" cy="195" rx="50" ry="25" fill="#90EE90"/>
  
  <!-- Tree 1 -->
  <rect x="65" y="160" width="8" height="40" fill="#8B4513"/>
  <circle cx="69" cy="160" r="18" fill="#228B22"/>
  <circle cx="69" cy="155" r="15" fill="#32CD32"/>
  
  <!-- Tree 2 -->
  <rect x="180" y="170" width="6" height="30" fill="#8B4513"/>
  <circle cx="183" cy="170" r="14" fill="#228B22"/>
  <circle cx="183" cy="166" r="11" fill="#32CD32"/>
  
  <!-- Tree 3 -->
  <rect x="120" y="165" width="7" height="35" fill="#8B4513"/>
  <circle cx="123.5" cy="165" r="16" fill="#228B22"/>
  <circle cx="123.5" cy="161" r="13" fill="#32CD32"/>
  
  <!-- Flowers -->
  <circle cx="40" cy="220" r="3" fill="#FF69B4"/>
  <circle cx="45" cy="225" r="3" fill="#FFB6C1"/>
  <circle cx="50" cy="218" r="3" fill="#FF1493"/>
  
  <circle cx="130" cy="235" r="3" fill="#9370DB"/>
  <circle cx="135" cy="230" r="3" fill="#DA70D6"/>
  <circle cx="140" cy="238" r="3" fill="#EE82EE"/>
  
  <circle cx="220" cy="225" r="3" fill="#FF4500"/>
  <circle cx="225" cy="230" r="3" fill="#FF6347"/>
  <circle cx="230" cy="223" r="3" fill="#FFA500"/>
  
  <!-- Grass foreground -->
  <rect x="0" y="240" width="300" height="60" fill="url(#grassGradient)"/>
  
  <!-- Clouds -->
  <ellipse cx="80" cy="40" rx="15" ry="8" fill="white" opacity="0.8"/>
  <ellipse cx="90" cy="35" rx="12" ry="6" fill="white" opacity="0.8"/>
  <ellipse cx="85" cy="45" rx="10" ry="5" fill="white" opacity="0.8"/>
  
  <ellipse cx="170" cy="30" rx="18" ry="10" fill="white" opacity="0.7"/>
  <ellipse cx="185" cy="25" rx="14" ry="7" fill="white" opacity="0.7"/>
  <ellipse cx="180" cy="35" rx="12" ry="6" fill="white" opacity="0.7"/>
  
  <!-- Butterflies -->
  <g transform="translate(150,120)">
    <ellipse cx="0" cy="0" rx="3" ry="6" fill="#FFB6C1"/>
    <ellipse cx="4" cy="0" rx="3" ry="6" fill="#FFB6C1"/>
    <line x1="2" y1="-8" x2="2" y2="8" stroke="#8B4513" stroke-width="1"/>
  </g>
  
  <g transform="translate(210,140)">
    <ellipse cx="0" cy="0" rx="2" ry="4" fill="#87CEEB"/>
    <ellipse cx="3" cy="0" rx="2" ry="4" fill="#87CEEB"/>
    <line x1="1.5" y1="-6" x2="1.5" y2="6" stroke="#8B4513" stroke-width="0.5"/>
  </g>
  
  <!-- Birds -->
  <path d="M 20 80 Q 25 75 30 80" stroke="#333" stroke-width="2" fill="none"/>
  <path d="M 35 85 Q 40 80 45 85" stroke="#333" stroke-width="2" fill="none"/>
  
  <!-- Lake/pond -->
  <ellipse cx="200" cy="260" rx="40" ry="15" fill="#4169E1" opacity="0.6"/>
  
  <!-- Rocks -->
  <ellipse cx="90" cy="255" rx="8" ry="5" fill="#696969"/>
  <ellipse cx="250" cy="250" rx="6" ry="4" fill="#808080"/>
  <ellipse cx="160" cy="265" rx="5" ry="3" fill="#A9A9A9"/>
</svg>
